<?xml version="1.0" encoding="utf-8"?>
<!-- Generator: Adobe Illustrator 23.0.3, SVG Export Plug-In . SVG Version: 6.00 Build 0)  -->
<svg version="1.1" id="Layer_1" xmlns="http://www.w3.org/2000/svg" xmlns:xlink="http://www.w3.org/1999/xlink" x="0px" y="0px"
	 viewBox="0 0 31 31" style="enable-background:new 0 0 31 31;" xml:space="preserve">
<g>
	<path style="fill-rule:evenodd;clip-rule:evenodd;fill:#BC793C;" d="M21.82,15.74l-0.21-0.5c-0.31-0.77-1.19-1.13-1.96-0.82
		l-1.38,0.56c-0.56,0.23-1.21,0.1-1.62-0.33c-0.08-0.08-0.16-0.16-0.24-0.24c-0.44-0.42-0.56-1.07-0.33-1.63l0.58-1.38
		c0.32-0.76-0.04-1.64-0.8-1.96l-0.5-0.21c-0.76-0.32-1.64,0.04-1.96,0.8l-0.58,1.38c-0.24,0.56-0.79,0.93-1.39,0.91
		c-0.11,0-0.23,0-0.34,0c-0.61,0.01-1.15-0.36-1.38-0.93L9.13,10C8.82,9.23,7.94,8.87,7.17,9.18l-0.5,0.21
		C5.9,9.7,5.54,10.58,5.85,11.34l0.57,1.39c0.23,0.56,0.1,1.21-0.34,1.63C6,14.43,5.92,14.51,5.84,14.59
		c-0.42,0.44-1.07,0.56-1.63,0.33l-1.38-0.58c-0.76-0.32-1.64,0.04-1.96,0.8l-0.21,0.5c-0.32,0.76,0.04,1.64,0.8,1.96l1.38,0.58
		c0.56,0.24,0.93,0.79,0.91,1.4c0,0.11,0,0.23,0,0.34c0.01,0.6-0.37,1.15-0.93,1.38l-1.38,0.56c-0.77,0.31-1.13,1.19-0.82,1.96
		l0.21,0.5c0.31,0.77,1.19,1.13,1.96,0.82l1.37-0.56c0.56-0.23,1.21-0.1,1.63,0.34c0.08,0.08,0.16,0.17,0.25,0.25
		c0.44,0.42,0.56,1.07,0.33,1.63l-0.57,1.37c-0.32,0.76,0.04,1.64,0.8,1.96l0.5,0.21c0.76,0.32,1.64-0.04,1.96-0.8l0.57-1.36
		c0.24-0.56,0.79-0.93,1.4-0.91c0.12,0,0.24,0,0.35,0c0.6-0.01,1.15,0.37,1.38,0.93l0.56,1.37c0.31,0.77,1.19,1.13,1.96,0.82
		l0.5-0.21c0.77-0.31,1.13-1.19,0.82-1.96l-0.56-1.37c-0.23-0.56-0.1-1.21,0.33-1.62c0.09-0.08,0.17-0.17,0.25-0.25
		c0.42-0.44,1.07-0.56,1.63-0.33l1.36,0.57c0.76,0.32,1.64-0.04,1.96-0.8l0.21-0.5c0.32-0.76-0.04-1.64-0.8-1.96l-1.37-0.57
		c-0.56-0.24-0.93-0.79-0.91-1.39c0-0.12,0-0.23,0-0.35c-0.01-0.61,0.36-1.15,0.93-1.38L21,17.7
		C21.76,17.39,22.13,16.51,21.82,15.74z M12.83,23.73c-2.17,0.89-4.66-0.15-5.55-2.33s0.15-4.66,2.33-5.55
		c2.17-0.89,4.66,0.15,5.55,2.33C16.05,20.36,15,22.84,12.83,23.73z"/>
	<path style="fill-rule:evenodd;clip-rule:evenodd;fill:#BC793C;" d="M28.53,2.77l-0.24-0.25c-0.37-0.38-0.98-0.38-1.35-0.01
		l-0.68,0.67c-0.27,0.27-0.69,0.36-1.04,0.2c-0.07-0.03-0.13-0.06-0.2-0.08c-0.36-0.14-0.59-0.5-0.59-0.88l0.01-0.95
		c0-0.53-0.42-0.96-0.95-0.96l-0.35,0c-0.53,0-0.96,0.42-0.96,0.95l-0.01,0.96c0,0.39-0.24,0.74-0.6,0.88
		c-0.07,0.03-0.13,0.05-0.2,0.08c-0.35,0.15-0.77,0.06-1.04-0.21l-0.67-0.68C19.28,2.1,18.68,2.1,18.3,2.47l-0.25,0.24
		c-0.38,0.37-0.38,0.98-0.01,1.35l0.67,0.68c0.27,0.27,0.36,0.69,0.2,1.04c-0.03,0.07-0.06,0.13-0.08,0.2
		c-0.14,0.36-0.5,0.59-0.88,0.59l-0.96-0.01c-0.53,0-0.96,0.42-0.96,0.95l0,0.35c0,0.53,0.42,0.96,0.95,0.96l0.95,0.01
		c0.39,0,0.74,0.24,0.88,0.6c0.03,0.07,0.05,0.14,0.08,0.2c0.15,0.35,0.06,0.77-0.21,1.04l-0.68,0.67
		c-0.38,0.37-0.38,0.98-0.01,1.35l0.24,0.25c0.37,0.38,0.98,0.38,1.35,0.01l0.67-0.67c0.27-0.27,0.69-0.36,1.04-0.2
		c0.07,0.03,0.14,0.06,0.21,0.09c0.36,0.14,0.59,0.5,0.59,0.88l-0.01,0.95c0,0.53,0.42,0.96,0.95,0.96l0.35,0
		c0.53,0,0.96-0.42,0.96-0.95l0.01-0.94c0-0.39,0.24-0.74,0.6-0.88c0.07-0.03,0.14-0.05,0.21-0.08c0.35-0.15,0.77-0.06,1.04,0.21
		L26.87,13c0.37,0.38,0.98,0.38,1.35,0.01l0.25-0.24c0.38-0.37,0.38-0.98,0.01-1.35l-0.66-0.67c-0.27-0.27-0.36-0.69-0.2-1.04
		c0.03-0.07,0.06-0.14,0.09-0.21c0.14-0.36,0.5-0.59,0.88-0.59l0.94,0.01c0.53,0,0.96-0.42,0.96-0.95l0-0.35
		c0-0.53-0.42-0.96-0.95-0.96L28.6,6.64c-0.39,0-0.74-0.24-0.88-0.6c-0.03-0.07-0.05-0.14-0.08-0.21c-0.15-0.35-0.06-0.77,0.21-1.04
		l0.67-0.67C28.9,3.75,28.9,3.15,28.53,2.77z M25.18,9.67c-1.07,1.05-2.78,1.04-3.84-0.02s-1.04-2.78,0.02-3.84
		c1.07-1.05,2.78-1.04,3.84,0.02C26.25,6.9,26.24,8.62,25.18,9.67z"/>
</g>
</svg>
